<?xml version="1.0" standalone="no"?>
<!DOCTYPE svg PUBLIC "-//W3C//DTD SVG 20010904//EN"
 "http://www.w3.org/TR/2001/REC-SVG-20010904/DTD/svg10.dtd">
<svg version="1.0" xmlns="http://www.w3.org/2000/svg"
 width="1080.000000pt" height="1080.000000pt" viewBox="0 0 1080.000000 1080.000000"
 preserveAspectRatio="xMidYMid meet">

<g transform="translate(0.000000,1080.000000) scale(0.100000,-0.100000)"
fill="#000000" stroke="none">
<path d="M5285 8964 c-95 -15 -245 -71 -325 -122 -116 -74 -233 -208 -286
-328 -66 -149 -66 -153 -75 -699 -4 -275 -9 -528 -11 -562 l-3 -63 -90 0 c-60
-1 -96 -5 -108 -14 -16 -13 -16 -14 7 -20 14 -3 64 -3 111 0 61 5 85 4 85 -5
0 -7 -32 -11 -102 -11 -57 -1 -314 -3 -572 -6 -449 -5 -473 -6 -561 -29 -181
-46 -330 -143 -444 -290 -84 -109 -132 -220 -157 -369 -14 -86 -15 -114 -5
-198 39 -320 232 -569 523 -673 138 -49 206 -55 629 -55 312 0 379 -2 379 -14
0 -12 56 -66 69 -66 3 0 4 -188 3 -417 -4 -442 3 -576 39 -706 59 -213 231
-403 441 -488 29 -11 61 -25 70 -30 23 -12 31 -11 23 2 -4 6 10 2 31 -9 182
-91 308 -119 498 -109 207 10 361 80 512 231 105 105 169 211 209 347 36 119
45 278 45 791 0 250 4 447 9 462 l10 24 553 5 c528 4 557 5 636 25 231 60 431
224 536 437 64 130 80 197 81 340 0 144 -15 210 -80 341 -100 201 -279 355
-500 429 -76 26 -95 28 -355 36 -151 5 -401 8 -556 8 -197 -1 -287 2 -302 10
-19 10 -22 9 -22 -8 0 -11 -4 -23 -10 -26 -6 -4 -10 -72 -10 -171 0 -103 -4
-164 -10 -164 -5 0 -10 -5 -10 -11 0 -5 5 -7 11 -4 15 10 10 -424 -7 -517 -30
-169 -59 -258 -83 -250 -10 3 -12 0 -8 -11 7 -17 -15 -41 -28 -29 -4 4 -4 -3
-1 -15 8 -25 -10 -67 -25 -58 -5 4 -9 -4 -9 -16 0 -16 -5 -20 -20 -16 -16 4
-22 -1 -26 -21 -4 -15 -25 -45 -48 -67 -41 -40 -75 -52 -88 -31 -4 6 -8 -4 -8
-21 0 -26 -4 -33 -19 -33 -11 0 -23 -5 -27 -11 -3 -6 -15 -9 -25 -6 -27 7 -23
0 9 -17 25 -14 25 -15 5 -16 -12 0 -25 5 -28 10 -10 17 -45 12 -39 -5 4 -11 0
-15 -16 -15 -16 0 -20 4 -16 15 4 10 -1 15 -14 15 -13 0 -20 -7 -20 -20 0 -15
-7 -20 -25 -20 -17 0 -29 -7 -35 -22 l-9 -23 0 23 c-1 19 -5 22 -22 17 -15 -5
-22 -2 -26 14 -3 13 -13 21 -27 21 -13 0 -16 -3 -9 -8 16 -10 20 -44 6 -49 -7
-3 -13 3 -13 12 0 13 -8 15 -40 11 -21 -3 -53 -1 -70 4 -16 5 -30 5 -30 0 0
-9 -50 -23 -58 -16 -2 3 -6 16 -8 28 -3 13 -7 38 -10 57 -5 24 -3 32 5 27 6
-4 10 -15 9 -23 -2 -9 3 -18 11 -21 8 -3 11 0 7 6 -10 16 13 25 29 12 18 -15
20 1 3 18 -9 9 -9 12 -1 12 7 0 15 -9 18 -20 7 -21 25 -28 25 -10 0 6 7 10 15
10 9 0 12 -6 9 -15 -4 -9 0 -15 10 -15 9 0 16 -5 16 -11 0 -5 5 -7 11 -3 7 4
8 9 1 13 -6 3 -12 17 -15 31 -2 14 -2 19 0 13 5 -15 53 -18 53 -3 0 23 29 8
33 -17 l4 -28 2 29 c1 21 5 27 16 22 10 -3 18 1 22 12 4 9 13 23 20 30 11 11
13 10 13 -5 0 -14 2 -15 9 -4 5 8 16 11 29 7 11 -4 23 -2 27 4 3 6 -4 10 -17
10 l-23 0 25 20 c14 11 32 20 40 20 9 0 22 6 28 12 10 10 17 10 32 0 12 -7 20
-8 20 -2 0 5 -4 10 -10 10 -5 0 -10 7 -10 15 0 8 8 15 19 15 10 0 24 7 31 15
7 8 19 15 26 15 8 0 14 7 14 15 0 8 -5 15 -11 15 -5 0 -7 5 -4 10 4 6 11 8 16
5 5 -4 12 1 15 9 3 9 12 16 20 16 9 0 14 11 14 30 0 30 14 41 23 18 3 -7 6 5
6 27 1 28 4 36 10 26 6 -10 8 -2 6 23 -3 30 0 39 14 43 13 3 17 11 13 29 -3
17 0 24 12 24 19 0 22 46 4 53 -8 3 -6 6 5 6 18 1 25 21 7 21 -5 0 -10 7 -10
15 0 8 4 15 8 15 5 0 9 17 9 38 -1 20 3 46 8 56 5 12 5 17 -1 13 -6 -3 -9 12
-9 39 2 32 -2 44 -12 44 -8 0 -11 5 -8 11 4 6 13 8 21 5 8 -3 14 1 14 9 0 8
-7 15 -15 15 -20 0 -19 10 3 27 12 10 14 16 5 19 -20 9 -16 34 5 28 14 -5 14
-4 2 5 -8 5 -11 13 -7 17 4 4 3 12 -2 18 -5 6 -12 39 -15 73 -4 47 -2 66 9 77
13 13 13 16 0 30 -8 8 -15 24 -15 35 0 11 -5 23 -10 26 -6 4 -9 14 -8 23 2 11
-3 16 -14 14 -17 -3 -24 17 -19 55 2 13 -26 6 -70 -17 -15 -8 -19 -7 -19 5 0
18 -12 19 -28 3 -8 -8 -18 -9 -34 -1 -13 5 -34 7 -48 3 -17 -4 -29 -1 -38 9
-12 14 -13 13 -9 -5 4 -17 1 -20 -14 -17 -11 3 -25 1 -32 -5 -12 -10 -95 -8
-105 3 -3 3 0 5 6 5 7 0 12 12 11 28 0 15 -3 20 -6 12 -14 -45 -26 -60 -40
-48 -10 8 -12 7 -8 -5 8 -20 -12 -32 -30 -17 -8 7 -15 9 -15 4 0 -5 -4 -4 -8
2 -4 6 -18 15 -30 19 -21 6 -23 4 -17 -14 5 -18 2 -21 -20 -21 -26 0 -47 32
-38 58 7 18 -29 3 -45 -20 -7 -10 -21 -17 -30 -17 -15 1 -15 2 1 6 32 8 17 22
-20 17 -27 -3 -32 -2 -18 4 18 8 17 9 -8 14 -16 3 -27 1 -27 -6 0 -6 -14 -19
-30 -28 -24 -14 -30 -14 -30 -3 0 7 5 15 12 17 6 2 8 10 4 16 -11 18 -26 4
-26 -23 0 -13 -5 -27 -11 -30 -17 -11 -23 3 -9 20 8 10 9 15 1 15 -6 0 -11 -5
-11 -11 0 -6 -6 -9 -12 -7 -21 7 -18 60 3 65 30 8 22 23 -11 23 -30 0 -35 -8
-33 -57 1 -7 -3 -13 -9 -13 -5 0 -7 20 -6 46 3 40 5 44 23 40 11 -3 34 -6 52
-6 25 0 31 -4 27 -15 -4 -8 -1 -15 5 -15 6 0 11 10 11 23 1 20 2 21 14 5 16
-22 30 -23 22 -2 -4 10 -1 14 6 12 7 -3 15 -13 17 -24 5 -27 41 -48 41 -24 0
6 -7 10 -16 10 -10 0 -14 6 -10 15 3 8 1 15 -4 15 -6 0 -10 4 -10 9 0 5 9 7
19 4 12 -3 17 -11 14 -19 -4 -10 3 -14 22 -14 22 0 25 -3 16 -14 -9 -10 -8
-15 4 -20 20 -7 21 30 1 41 -12 7 -12 11 0 28 14 18 15 18 43 2 32 -19 61 -22
61 -7 0 6 9 6 26 0 28 -11 69 4 59 21 -4 5 1 9 10 9 9 0 14 -4 10 -9 -3 -5 -1
-12 4 -16 5 -3 14 3 20 12 10 17 10 17 11 1 0 -22 23 -23 40 -3 7 9 19 14 27
11 8 -3 13 2 13 13 0 17 6 18 41 14 32 -5 44 -2 51 11 5 9 23 17 41 17 l32 1
-30 7 c-21 4 -26 9 -17 15 8 4 23 1 37 -8 24 -16 25 -15 25 4 0 17 4 20 21 15
18 -6 20 -4 15 13 -8 24 21 38 55 27 19 -6 21 -4 16 14 -3 14 0 24 9 28 8 3
14 12 14 20 0 8 4 12 9 9 14 -9 41 4 41 19 0 14 22 25 51 25 10 0 19 5 19 11
0 6 -7 9 -15 5 -8 -3 -15 -1 -15 4 0 6 8 10 18 10 9 0 28 9 42 20 23 18 23 20
5 20 -16 0 -14 4 13 21 18 12 32 29 32 40 0 13 6 19 17 17 11 -2 19 6 23 22
l7 25 5 -25 c3 -14 6 3 7 37 2 113 17 73 18 -50 2 -230 3 -250 8 -245 3 3 8
218 11 479 7 507 4 556 -41 690 -44 128 -100 215 -209 325 -113 112 -222 176
-363 215 -76 20 -242 33 -308 23z m143 -134 c6 0 12 5 12 10 0 6 18 10 40 10
31 0 40 -4 40 -17 0 -14 2 -15 9 -4 10 16 31 6 31 -15 0 -17 12 -18 28 -2 9 9
12 8 12 -7 0 -15 3 -16 9 -7 5 9 17 11 34 6 30 -7 34 -16 13 -33 -11 -9 -30
-9 -80 0 -36 6 -69 15 -72 20 -3 5 -11 6 -17 2 -7 -4 -42 -9 -79 -11 l-68 -3
0 28 c0 42 16 54 48 37 15 -8 33 -14 40 -14z m-108 0 c0 -5 -4 -10 -10 -10 -5
0 -10 -4 -10 -10 0 -5 8 -10 17 -10 30 0 0 -20 -36 -24 -18 -2 -36 -8 -40 -13
-8 -12 -53 -24 -45 -12 3 5 1 9 -4 9 -12 0 -24 -29 -16 -41 8 -13 -10 -11 -24
3 -9 9 -16 8 -30 -5 -10 -9 -22 -14 -25 -11 -4 4 -13 2 -20 -4 -8 -7 -17 -9
-20 -5 -12 11 -8 23 8 23 9 0 18 7 21 15 4 8 12 15 19 15 8 0 17 9 20 20 5 15
12 19 26 15 11 -4 19 -2 19 5 0 7 7 10 15 6 8 -3 15 -2 15 2 0 4 20 6 45 4 40
-4 45 -2 45 17 0 12 6 21 15 21 8 0 15 -4 15 -10z m402 -79 c17 -6 34 -8 39
-5 5 3 9 -2 9 -10 0 -8 8 -17 18 -19 9 -2 5 -3 -10 -2 -16 1 -28 -2 -28 -7 0
-4 -4 -8 -10 -8 -5 0 -10 7 -10 16 0 10 -5 14 -15 10 -17 -6 -36 31 -34 62 1
11 3 9 6 -5 3 -13 16 -26 35 -32z m-672 -92 c-8 -13 -21 -19 -46 -19 -21 0
-33 4 -29 10 3 6 15 10 25 10 11 0 25 6 32 14 18 19 30 9 18 -15z m510 -1
c156 -50 274 -167 332 -328 23 -64 23 -72 26 -536 l3 -472 -48 -34 c-121 -87
-242 -133 -397 -149 -103 -12 -580 -9 -592 3 -3 4 -7 251 -8 550 -1 606 -1
609 69 733 55 99 180 204 279 235 100 32 233 31 336 -2z m300 -9 c0 -5 -7 -9
-15 -9 -9 0 -12 6 -9 15 6 15 24 11 24 -6z m-900 -29 c0 -11 -4 -20 -9 -20 -5
0 -7 9 -4 20 3 11 7 20 9 20 2 0 4 -9 4 -20z m960 -47 c0 -7 -4 -13 -10 -13
-5 0 -7 6 -4 13 3 8 -2 20 -10 27 -9 7 -13 17 -9 22 6 11 32 -28 33 -49z
m-1039 -36 c-10 -9 -11 -8 -5 6 3 10 9 15 12 12 3 -3 0 -11 -7 -18z m-308
-1364 c-13 -2 -33 -2 -45 0 -13 2 -3 4 22 4 25 0 35 -2 23 -4z m357 -127 c0
-3 -4 -8 -10 -11 -5 -3 -10 -1 -10 4 0 6 5 11 10 11 6 0 10 -2 10 -4z m-47
-19 c7 4 8 0 3 -12 -4 -11 0 -26 11 -39 10 -12 14 -18 9 -14 -5 4 -15 3 -23
-4 -11 -9 -13 -8 -11 3 2 8 -2 13 -9 12 -7 -2 -18 7 -24 19 -10 18 -9 20 5 15
12 -5 16 0 17 16 0 12 3 16 6 9 2 -6 10 -9 16 -5z m110 -34 c-6 -36 -23 -46
-23 -14 0 11 -5 23 -11 26 -6 4 -9 -2 -8 -17 4 -39 -1 -68 -10 -68 -5 0 -8 17
-7 38 0 24 -3 36 -12 35 -6 -2 -12 3 -12 10 0 8 15 14 37 15 21 2 39 5 42 7 8
8 9 1 4 -32z m-276 -25 c-3 -7 -5 -2 -5 12 0 14 2 19 5 13 2 -7 2 -19 0 -25z
m-80 6 c-3 -3 -12 -4 -19 -1 -8 3 -5 6 6 6 11 1 17 -2 13 -5z m158 -22 c-6 -7
-34 11 -29 19 3 5 11 3 19 -4 7 -6 12 -13 10 -15z m115 -12 c0 -5 -2 -10 -4
-10 -3 0 -8 5 -11 10 -3 6 -1 10 4 10 6 0 11 -4 11 -10z m302 3 c-6 -2 -9 -10
-6 -15 4 -7 2 -8 -4 -4 -18 11 -14 26 6 25 10 0 12 -3 4 -6z m-443 -97 c-2 -2
-87 -6 -189 -10 -101 -3 -189 -11 -194 -16 -7 -7 3 -22 28 -45 l38 -34 -20
-54 c-76 -203 -103 -543 -58 -731 l14 -59 -41 -38 c-22 -22 -45 -40 -51 -40
-6 -1 3 -5 19 -9 17 -5 -175 -7 -425 -6 -439 2 -457 3 -508 23 -170 69 -287
194 -330 351 -37 134 -26 255 35 381 65 136 194 240 341 275 45 12 188 15 701
15 354 1 642 -1 640 -3z m198 -1158 c-3 -8 -6 -5 -6 6 -1 11 2 17 5 13 3 -3 4
-12 1 -19z m98 -8 c8 0 12 6 9 14 -4 11 3 13 38 9 24 -3 55 -11 69 -18 14 -6
41 -10 60 -9 l34 4 -37 -17 c-21 -8 -38 -22 -38 -29 0 -17 -22 -18 -37 -3 -8
8 -22 8 -49 0 -62 -17 -74 -15 -75 17 0 24 -1 25 -9 7 -7 -17 -9 -15 -9 12 -1
31 21 52 27 26 2 -7 10 -13 17 -13z m155 9 c0 -5 -4 -9 -10 -9 -5 0 -10 7 -10
16 0 8 5 12 10 9 6 -3 10 -10 10 -16z m-500 -4 c0 -8 -9 -15 -20 -15 -17 0
-19 2 -8 15 17 19 28 19 28 0z m161 -37 c-19 -33 -22 -34 -39 -8 -7 11 -8 20
-3 20 5 0 11 -6 14 -12 7 -19 20 -2 20 26 0 19 2 22 12 13 9 -9 8 -17 -4 -39z
m-41 38 c0 -3 -4 -8 -10 -11 -5 -3 -10 -1 -10 4 0 6 5 11 10 11 6 0 10 -2 10
-4z m93 -16 c3 -10 0 -26 -7 -35 -9 -12 -11 -9 -12 20 -1 38 10 47 19 15z
m-143 -15 c0 -9 -9 -15 -21 -15 -18 0 -19 2 -9 15 7 8 16 15 21 15 5 0 9 -7 9
-15z m180 -2 c0 -5 -4 -14 -9 -21 -7 -11 -9 -11 -14 1 -3 8 -3 18 0 21 9 8 23
7 23 -1z m30 -9 c0 -8 -4 -12 -10 -9 -5 3 -10 10 -10 16 0 5 5 9 10 9 6 0 10
-7 10 -16z m280 1 c0 -8 -5 -15 -11 -15 -6 0 -9 -7 -5 -15 3 -10 -1 -15 -12
-15 -23 0 -50 20 -36 26 6 3 20 11 30 19 25 19 34 19 34 0z m195 -45 c3 -5 -3
-10 -14 -10 -12 0 -21 5 -21 10 0 6 6 10 14 10 8 0 18 -4 21 -10z"/>
<path d="M5393 8803 c9 -2 25 -2 35 0 9 3 1 5 -18 5 -19 0 -27 -2 -17 -5z"/>
<path d="M5110 5680 c-8 -5 -10 -10 -5 -10 6 0 17 5 25 10 8 5 11 10 5 10 -5
0 -17 -5 -25 -10z"/>
<path d="M5160 5654 c0 -9 5 -14 12 -12 18 6 21 28 4 28 -9 0 -16 -7 -16 -16z"/>
<path d="M5075 5650 c3 -5 8 -10 11 -10 2 0 4 5 4 10 0 6 -5 10 -11 10 -5 0
-7 -4 -4 -10z"/>
<path d="M5975 7300 c-3 -5 1 -10 9 -10 9 0 16 5 16 10 0 6 -4 10 -9 10 -6 0
-13 -4 -16 -10z"/>
<path d="M5830 7184 c0 -8 5 -12 10 -9 6 3 10 10 10 16 0 5 -4 9 -10 9 -5 0
-10 -7 -10 -16z"/>
<path d="M6191 7164 c0 -11 3 -14 6 -6 3 7 2 16 -1 19 -3 4 -6 -2 -5 -13z"/>
<path d="M5305 7030 c3 -5 8 -10 11 -10 2 0 4 5 4 10 0 6 -5 10 -11 10 -5 0
-7 -4 -4 -10z"/>
<path d="M5465 7030 c4 -6 11 -8 16 -5 14 9 11 15 -7 15 -8 0 -12 -5 -9 -10z"/>
<path d="M5360 7010 c0 -4 9 -10 20 -13 11 -3 20 -2 20 3 0 4 -9 10 -20 13
-11 3 -20 2 -20 -3z"/>
<path d="M5591 6974 c0 -11 3 -14 6 -6 3 7 2 16 -1 19 -3 4 -6 -2 -5 -13z"/>
<path d="M5360 6939 c0 -5 5 -7 10 -4 6 3 10 8 10 11 0 2 -4 4 -10 4 -5 0 -10
-5 -10 -11z"/>
<path d="M6180 6840 c0 -5 5 -10 11 -10 5 0 7 5 4 10 -3 6 -8 10 -11 10 -2 0
-4 -4 -4 -10z"/>
<path d="M5677 5795 c3 -8 9 -12 14 -9 12 7 11 11 -5 17 -10 4 -13 1 -9 -8z"/>
<path d="M8462 3829 c-70 -9 -168 -39 -252 -77 -177 -80 -301 -214 -406 -439
-32 -68 -63 -123 -69 -123 -14 0 -42 -96 -51 -174 -4 -31 -10 -58 -14 -61 -3
-2 -35 35 -71 83 -64 87 -161 190 -226 239 -64 49 -46 14 38 -75 46 -48 97
-113 113 -143 64 -118 96 -160 117 -154 14 5 38 -11 94 -61 66 -61 75 -73 81
-113 4 -25 13 -59 20 -76 22 -53 143 -167 221 -208 205 -107 359 -115 593 -28
76 28 237 112 250 131 3 4 16 13 29 19 79 42 228 169 448 383 202 196 319 280
488 353 60 26 115 69 115 90 0 7 -15 28 -32 48 -24 27 -69 53 -168 98 -74 33
-154 69 -178 80 -69 31 -334 116 -467 148 -265 66 -480 85 -673 60z"/>
<path d="M6665 3631 c-77 -10 -111 -27 -125 -60 -15 -38 -2 -66 68 -145 33
-38 95 -131 143 -214 165 -289 263 -397 423 -466 l75 -33 -39 -12 c-58 -17
-90 -61 -90 -123 0 -43 4 -54 31 -79 17 -16 58 -38 91 -51 81 -29 128 -74 128
-121 0 -40 -28 -73 -68 -84 -27 -6 -138 1 -163 12 -19 7 -34 -31 -16 -42 20
-12 152 -15 194 -4 67 18 95 48 100 107 8 85 -29 131 -137 169 -72 25 -110 60
-110 100 0 64 51 89 150 75 63 -9 70 -6 70 21 0 13 -7 19 -22 20 -18 0 -14 4
16 18 l39 17 -69 18 c-115 31 -166 60 -249 144 -82 82 -156 188 -231 329 -74
138 -112 193 -186 264 -37 36 -68 71 -68 77 0 15 20 19 182 33 76 7 204 10
285 7 140 -5 145 -4 103 9 -52 17 -426 27 -525 14z"/>
<path d="M5246 3406 c-25 -29 -46 -56 -46 -60 0 -3 12 -6 26 -6 17 0 43 17 80
51 30 29 54 56 54 60 0 5 -15 9 -34 9 -29 0 -41 -8 -80 -54z"/>
<path d="M3012 3288 c-9 -9 -12 -83 -12 -270 l0 -258 35 0 34 0 3 118 3 117
98 3 c96 3 97 3 97 27 0 25 -2 25 -85 26 -47 1 -91 2 -97 3 -9 1 -13 26 -13
91 l0 90 103 3 102 3 0 29 0 30 -128 0 c-86 0 -132 -4 -140 -12z"/>
<path d="M3520 3297 c0 -1 -25 -72 -56 -157 -81 -225 -124 -352 -124 -368 0
-9 10 -12 31 -10 29 3 34 9 56 71 l25 67 112 0 112 0 23 -70 c22 -69 23 -70
57 -70 24 0 34 5 34 15 0 20 -170 496 -183 513 -8 10 -87 19 -87 9z m90 -212
c22 -65 38 -120 36 -122 -2 -2 -42 -3 -89 -1 l-86 3 39 113 c41 116 49 136 56
129 2 -2 22 -57 44 -122z"/>
<path d="M3892 3288 c-9 -9 -12 -83 -12 -270 l0 -258 35 0 34 0 3 118 3 117
48 -1 c63 -1 78 -17 126 -134 38 -94 39 -95 75 -98 20 -2 36 1 36 7 0 25 -74
189 -100 222 l-28 35 33 18 c39 21 60 65 59 122 -1 57 -33 98 -91 118 -56 19
-203 22 -221 4z m215 -83 c25 -29 29 -61 12 -98 -16 -36 -48 -49 -109 -45
l-55 3 -3 74 c-4 104 -4 105 71 98 50 -5 66 -10 84 -32z"/>
<path d="M4353 3289 c-10 -10 -13 -78 -13 -271 l0 -258 35 0 35 0 2 198 c1
108 2 209 2 225 1 15 3 27 6 27 5 0 71 -166 149 -375 26 -68 28 -70 60 -70
l34 0 90 223 c50 122 92 220 95 217 2 -2 4 -92 3 -198 -2 -236 0 -249 43 -245
l31 3 3 254 c2 179 -1 258 -9 267 -14 17 -80 18 -101 2 -9 -7 -51 -98 -93
-203 -43 -104 -81 -196 -85 -204 -5 -9 -35 56 -84 182 -43 107 -83 203 -90
212 -16 22 -96 32 -113 14z"/>
<path d="M5164 3223 c-15 -43 -56 -157 -91 -252 -35 -96 -63 -183 -63 -194 0
-15 6 -18 32 -15 29 3 33 8 56 71 l25 68 111 -3 111 -3 24 -67 c23 -66 24 -68
57 -68 23 0 34 5 34 15 0 19 -170 497 -183 513 -5 6 -26 12 -47 12 l-38 0 -28
-77z m115 -137 c23 -65 40 -121 37 -123 -2 -2 -42 -3 -89 -1 l-85 3 33 95 c42
122 55 154 59 149 3 -2 23 -58 45 -123z"/>
<path d="M5670 3284 c-49 -22 -78 -51 -108 -109 -24 -45 -27 -61 -27 -155 0
-89 4 -111 22 -146 50 -95 145 -137 255 -115 68 14 108 43 108 77 0 28 -10 30
-53 7 -51 -26 -98 -33 -142 -22 -82 22 -118 85 -119 204 0 67 4 88 25 124 32
58 67 83 126 88 38 4 58 -1 97 -22 54 -29 73 -23 62 18 -13 54 -168 85 -246
51z"/>
<path d="M6017 3293 c-4 -3 -7 -125 -7 -270 l0 -263 35 0 35 0 0 270 0 270
-28 0 c-16 0 -32 -3 -35 -7z"/>
<path d="M6337 3258 c-8 -24 -49 -137 -91 -253 -42 -115 -76 -218 -76 -228 0
-14 7 -18 31 -15 29 3 34 9 57 71 l25 68 111 -3 111 -3 20 -55 c27 -74 32 -80
66 -80 35 0 36 10 10 82 -11 29 -50 139 -86 243 -37 105 -72 196 -78 203 -5 6
-26 12 -47 12 -36 0 -39 -3 -53 -42z m103 -171 c22 -64 40 -119 40 -122 0 -3
-41 -5 -91 -5 -83 0 -91 2 -84 18 3 9 19 53 35 97 40 114 50 138 55 133 2 -2
23 -57 45 -121z"/>
<path d="M5000 2698 c-1 -2 -2 -112 -3 -246 l-2 -242 148 0 c140 0 147 1 147
20 0 19 -7 20 -119 20 l-120 0 -3 100 -3 99 90 3 c78 3 90 5 93 22 4 17 -2 18
-87 11 l-91 -7 0 53 c0 30 -3 71 -6 92 l-7 37 117 0 c109 0 116 1 116 20 0 19
-7 20 -135 20 -74 0 -135 -1 -135 -2z"/>
<path d="M5400 2698 c0 -2 -1 -112 -3 -246 l-2 -242 143 0 c135 0 142 1 142
20 0 19 -7 20 -121 20 l-121 0 3 223 4 222 -22 3 c-13 2 -23 2 -23 0z"/>
<path d="M5789 2698 c0 -2 -1 -112 -2 -246 l-2 -242 95 0 c112 0 178 25 221
81 77 101 67 292 -18 359 -40 31 -119 50 -210 50 -46 0 -83 -1 -84 -2z m235
-68 c96 -65 109 -245 23 -328 -38 -37 -103 -62 -163 -62 l-42 0 -4 203 c-2
111 -2 206 1 211 2 4 36 6 76 4 56 -2 80 -9 109 -28z"/>
<path d="M6401 2678 c-34 -86 -57 -140 -116 -268 -37 -80 -71 -157 -75 -172
-8 -26 -6 -28 19 -28 22 0 29 7 40 38 7 20 22 58 33 85 l20 47 113 0 113 0 20
-47 c11 -27 26 -65 33 -85 11 -32 18 -38 41 -38 15 0 28 5 28 11 0 5 -29 74
-64 152 -36 78 -82 183 -104 232 -34 78 -43 90 -66 93 -20 3 -28 -2 -35 -20z
m49 -78 c6 -11 26 -56 45 -100 l34 -80 -94 0 -94 0 18 43 c50 113 71 157 76
157 2 0 9 -9 15 -20z"/>
<path d="M6783 2680 c-41 -24 -53 -48 -53 -103 0 -63 25 -89 121 -129 99 -40
129 -67 129 -117 -1 -63 -38 -91 -122 -91 -29 0 -68 4 -86 9 -27 8 -34 7 -42
-9 -13 -24 -3 -30 64 -37 142 -15 224 24 233 109 10 88 -19 124 -136 172 -83
34 -111 60 -111 103 0 63 60 92 152 75 36 -7 50 -6 59 4 21 25 -2 34 -89 34
-68 0 -94 -4 -119 -20z"/>
<path d="M7661 2678 c-31 -79 -57 -139 -116 -268 -37 -80 -71 -157 -75 -172
-8 -26 -6 -28 18 -28 25 0 30 8 60 85 l34 85 113 0 113 0 20 -47 c11 -27 26
-65 33 -85 11 -32 18 -38 42 -38 35 0 35 0 -43 175 -32 72 -76 171 -98 220
-34 78 -43 90 -66 93 -20 3 -28 -2 -35 -20z m49 -78 c6 -11 26 -56 45 -100
l34 -80 -95 0 -94 0 14 33 c36 83 77 167 81 167 2 0 9 -9 15 -20z"/>
<path d="M4752 1893 l2 -118 3 108 c2 59 7 107 12 107 4 0 24 -42 44 -92 21
-51 41 -100 47 -108 9 -15 9 -16 81 150 l28 65 1 -107 c0 -60 4 -110 10 -113
6 -4 10 35 10 110 0 105 -2 116 -17 113 -12 -2 -32 -37 -58 -95 -22 -51 -43
-93 -46 -93 -4 0 -24 42 -46 92 -25 59 -45 94 -56 96 -15 3 -17 -8 -15 -115z"/>
<path d="M5072 1922 c-2 -86 0 -95 23 -117 15 -16 36 -25 55 -25 19 0 40 9 55
25 23 22 25 31 23 117 l-1 93 -7 -93 c-8 -104 -20 -125 -70 -125 -52 0 -64 22
-71 126 l-5 92 -2 -93z"/>
<path d="M5313 2003 l37 -4 0 -104 c0 -58 4 -107 10 -110 6 -4 10 33 10 104
l0 110 43 4 c23 2 2 4 -48 4 -49 0 -73 -2 -52 -4z"/>
<path d="M5502 1898 c-22 -62 -39 -114 -37 -116 6 -6 40 74 60 138 10 30 21
59 25 63 7 8 50 -90 50 -113 0 -6 -19 -11 -42 -12 l-43 -1 50 -6 c45 -6 50 -9
59 -38 5 -18 13 -33 19 -33 5 0 6 8 2 18 -4 9 -23 61 -43 115 -19 53 -40 97
-47 97 -6 0 -30 -51 -53 -112z"/>
<path d="M5702 1893 l2 -118 3 108 c2 59 7 107 11 107 4 0 25 -44 47 -97 42
-101 58 -120 71 -81 4 12 21 54 39 93 18 38 35 77 38 85 3 8 6 -36 6 -97 1
-68 5 -113 11 -113 6 0 10 45 10 115 0 166 -21 156 -105 -50 l-16 -40 -43 100
c-27 64 -48 101 -59 103 -15 3 -17 -8 -15 -115z"/>
<path d="M6020 1895 l0 -115 41 0 c41 0 78 14 91 34 14 20 8 56 -11 72 -17 15
-18 18 -3 44 15 25 15 30 -1 54 -15 22 -25 26 -67 26 l-50 0 0 -115z m98 93
c32 -32 0 -78 -54 -78 -34 0 -34 0 -34 45 l0 45 38 0 c21 0 43 -5 50 -12z m-3
-100 c19 -9 25 -19 25 -44 0 -36 -12 -44 -71 -44 l-39 0 0 43 c0 24 3 47 7 50
10 11 49 8 78 -5z"/>
<path d="M6237 1913 c-19 -54 -38 -106 -42 -115 -4 -10 -3 -18 2 -18 6 0 14
15 19 33 9 31 12 32 66 35 l57 3 16 -37 c8 -20 17 -35 20 -32 9 8 -79 228 -91
228 -6 0 -28 -44 -47 -97z m77 13 c9 -27 16 -53 16 -58 0 -4 -20 -8 -45 -8
-50 0 -53 7 -31 61 7 19 16 43 20 53 9 25 20 12 40 -48z"/>
<path d="M4638 1873 c12 -2 30 -2 40 0 9 3 -1 5 -23 4 -22 0 -30 -2 -17 -4z"/>
<path d="M6428 1873 c12 -2 30 -2 40 0 9 3 -1 5 -23 4 -22 0 -30 -2 -17 -4z"/>
</g>
</svg>
